<?xml version="1.0" encoding="utf-8"?>
<!-- Generator: Adobe Illustrator 18.1.0, SVG Export Plug-In . SVG Version: 6.00 Build 0)  -->
<svg version="1.2" baseProfile="tiny" id="Layer_1" xmlns="http://www.w3.org/2000/svg" xmlns:xlink="http://www.w3.org/1999/xlink"
	 x="0px" y="0px" viewBox="0 0 267 131" xml:space="preserve">
<g>
	<path fill="#EF4136" d="M64.6,68.7C64.6,68.7,64.6,68.7,64.6,68.7L64.6,68.7L64.6,68.7z"/>
	<path fill="#EF4136" d="M33.7,94.9c-1.1-4.6,0-10.1,2.9-15.7c1.5-2.8,3.3-5.5,5.5-8.2c1.1-1.3,2.3-2.6,3.6-3.8l1-0.9l0.9-0.8
		c0.6-0.6,9-7.7,18.8-11.9c-2.6,1.5-5.3,3.3-7.9,5.2c-2.6,1.9-5.2,3.9-7.6,6.1c-0.6,0.5-1.2,1.1-1.8,1.7l-0.9,0.9l-0.8,0.8
		c-1.1,1.1-2.2,2.3-3.1,3.5c-1.9,2.4-3.5,4.9-4.7,7.4c-2.4,5-3.1,9.9-1.9,13.7c1.3,3.8,4.4,6.6,8.7,7.9c2.1,0.6,4.5,1,7,0.9
		c1.3-0.1,2.6-0.2,3.9-0.4c1.4-0.3,2.7-0.6,4.1-1c5.5-1.7,11-4.4,15.2-7.7c0.6-0.4,1-0.8,1.5-1.2l0.8-0.7l0.4-0.4l0,0c0,0,0,0,0,0
		l0,0l0,0c0,0,0,0,0,0l0,0l0.2-0.2c0.9-0.9,1.8-1.8,2.5-2.6c1.5-1.8,2.6-3.5,3.2-5c1.1-2.5,0.5-4,0.4-4.1c-0.4-1-2.1-2.5-3.7-0.3
		c-0.3,0.6-0.7,1.1-1.1,1.7c-0.1,0.2-0.2,0.3-0.3,0.4c0,0,0,0,0,0c-1.4,1.8-3.2,3.6-5.5,5.1c-1.6,1.1-3.3,1.9-4.9,2.6
		c-1.7,0.8-3.9,1.7-6.5,2.3c-1.8,0.4-3.7,0.6-5.6,0.5c-1.9-0.1-3.7-0.6-5.1-1.7c-0.7-0.5-1.3-1.1-1.8-1.9c-0.2-0.4-0.4-0.8-0.6-1.2
		l-0.1-0.2l0,0l0-0.1l0-0.1l-0.1-0.3c0-0.2-0.1-0.3-0.1-0.6c-0.2-1.1-0.1-2.1,0.1-3.2c0.2-1.1,0.5-2.3,1.1-3.6c1.1-2.5,2.8-5,5-7.4
		c1.1-1.2,2.3-2.4,3.5-3.5l0.2-0.2l0.1-0.1l0.2-0.2l0.4-0.4l0.9-0.7c0.7-0.6,1.5-1.2,2.2-1.7c5.8-4.2,12.5-7.3,19-9
		c1.6-0.4,3.3-0.8,4.9-1c1.6-0.2,3.2-0.4,4.7-0.3l0,0L96.4,32L98,21.9L87.1,28L71.7,7.3L56.6,28l-10.8-6.1l5.5,35.4l-18.6-16
		L31.9,43l-5,9.7L8.7,49.5l7,17.3L5.2,75.5L33.7,94.9z"/>
	<path fill="#EF4136" d="M138.6,75.5l-10.5-8.7l7-17.3L117,52.7L111,41.3L97.3,53.1c1.4,0.3,2.8,0.6,4,1.1c4.7,1.8,8,5.2,9.2,9.7
		c1.2,4.6,0.1,10.2-2.8,15.7c-1.4,2.8-3.3,5.6-5.5,8.2c-1.1,1.3-2.3,2.6-3.6,3.8l-1,0.9l-0.9,0.9c-0.6,0.6-10.5,8.7-18.9,12
		c2.7-1.5,5.3-3.3,7.9-5.2c2.6-1.9,5.2-3.9,7.6-6.1c0.6-0.5,1.2-1.1,1.8-1.7l0.9-0.9l0.8-0.8c1.1-1.1,2.1-2.3,3.1-3.5
		c1.9-2.4,3.5-4.9,4.6-7.4c2.3-5,3-9.9,1.7-13.7c-1.3-3.8-4.5-6.6-8.7-8c-2.1-0.7-4.5-1-7-0.9c-1.3,0-2.6,0.2-3.9,0.4
		c-1.4,0.2-2.7,0.6-4.1,1c-5.5,1.6-11,4.4-15.3,7.7c-0.6,0.4-1,0.8-1.5,1.2L65,68.3l-0.4,0.4c0.1-0.1,0,0,0,0l-0.1,0.1l-0.2,0.2
		c-0.9,0.9-1.8,1.8-2.5,2.7c-1.5,1.8-2.6,3.5-3.2,5c-0.3,0.8-0.5,1.5-0.6,2.2c-0.1,1.5,0.1,3.1,1.3,3.5c1.3,0.5,2.3-1.1,2.3-1.1
		s3.6-4.7,6.6-6.7c0.4-0.3,0.9-0.6,1.3-0.8c0,0,0.1,0,0.1-0.1c0.1-0.1,0.5-0.3,0.9-0.5c0.4-0.2,0.8-0.5,1.3-0.7
		c1.9-1,4.8-2.4,8.3-3.3c1.8-0.4,3.7-0.6,5.6-0.5c1.9,0.1,3.7,0.6,5.1,1.6c0.7,0.5,1.3,1.1,1.8,1.9c0.1,0.2,0.2,0.4,0.3,0.6l0.1,0.3
		l0.1,0.2l0,0.1l0.1,0.2l0.1,0.5c0,0.2,0.1,0.3,0.1,0.6c0.2,1.1,0.1,2.1-0.1,3.2c-0.2,1.1-0.6,2.3-1.1,3.6c-1.1,2.5-2.9,5-5.1,7.4
		c-1.1,1.2-2.3,2.4-3.5,3.5l-0.2,0.2l-0.1,0.1l-0.2,0.2l-0.4,0.4l-0.9,0.7c-0.7,0.6-1.5,1.2-2.2,1.7c-5.8,4.2-12.4,7.3-18.9,9
		c-1.6,0.5-3.3,0.8-4.9,1c-1.6,0.2-3.2,0.4-4.7,0.4c-3,0-5.8-0.5-8.1-1.4c-0.7-0.3-1.3-0.6-1.9-0.9l-1.4,8.4l-1.9,11.2l34.3-12
		l34.2,12l-4-23.1l8.2-5.6L138.6,75.5z"/>
</g>
<path fill="#4D4D4F" d="M74.7,79.7c0,1.7-1.4,3.1-3.1,3.1l0,0c-1.7,0-3.1-1.4-3.1-3.1l0,0c0-1.7,1.4-3.1,3.1-3.1l0,0
	C73.3,76.6,74.7,78,74.7,79.7L74.7,79.7z"/>
<g>
	<path fill="#4D4D4F" d="M158.3,115.9V78.3h7.3v37.6H158.3z"/>
	<path fill="#4D4D4F" d="M185.5,116.2c-4.1,0-7.5-1.5-10.1-4.1c-3.8-3.8-3.7-8.5-3.7-15c0-6.5-0.1-11.2,3.7-15
		c2.6-2.6,6-4.1,10.1-4.1c7,0,12.5,4,13.8,11.9h-7.4c-0.7-3-2.6-5.3-6.3-5.3c-2,0-3.6,0.7-4.7,2c-1.4,1.6-1.9,3.4-1.9,10.6
		c0,7.2,0.4,9,1.9,10.6c1.1,1.2,2.7,2,4.7,2c3.7,0,5.6-2.3,6.3-5.3h7.4C198,112.2,192.5,116.2,185.5,116.2z"/>
	<path fill="#4D4D4F" d="M226,115.9l-2.2-6.7h-13.4l-2.3,6.7h-7.7l13.7-37.6h5.7l13.7,37.6H226z M217.2,89.4l-4.7,13.7h9.3
		L217.2,89.4z"/>
	<path fill="#4D4D4F" d="M248.6,84.9v31h-7.3v-31h-9.8v-6.5h27v6.5H248.6z"/>
</g>
<g>
	<path fill="#4D4D4F" d="M170.9,63.5c-4.1,0-7.5-1.5-10.1-4.1c-3.8-3.8-3.7-8.5-3.7-15c0-6.5-0.1-11.2,3.7-15
		c2.6-2.6,6-4.1,10.1-4.1c7,0,12.5,4,13.8,11.9h-7.4c-0.7-3-2.6-5.3-6.3-5.3c-2,0-3.6,0.7-4.7,2c-1.4,1.6-1.9,3.4-1.9,10.6
		c0,7.2,0.4,9,1.9,10.6c1.1,1.2,2.7,2,4.7,2c3.7,0,5.6-2.3,6.3-5.3h7.4C183.4,59.5,177.8,63.5,170.9,63.5z"/>
	<path fill="#4D4D4F" d="M189.9,63.2V25.6h7.3v37.6H189.9z"/>
	<path fill="#4D4D4F" d="M219.3,32.2v31H212v-31h-9.8v-6.5h27v6.5H219.3z"/>
	<path fill="#4D4D4F" d="M252.5,63.2l-2.2-6.6H237l-2.3,6.6H227l13.7-37.6h5.8l13.7,37.6H252.5z M243.8,36.7L239,50.4h9.3
		L243.8,36.7z"/>
</g>
</svg>
